<svg width="40" height="40" viewBox="0 0 40 40" fill="none" xmlns="http://www.w3.org/2000/svg">
<g filter="url(#filter0_d_246_4131)">
<rect x="2" y="1" width="36" height="36" rx="4" fill="white" shape-rendering="crispEdges"/>
<path d="M22.5 20.875C22.5 21.2065 22.3683 21.5245 22.1339 21.7589C21.8995 21.9933 21.5815 22.125 21.25 22.125H20.625V19.625H21.25C21.5815 19.625 21.8995 19.7567 22.1339 19.9911C22.3683 20.2255 22.5 20.5435 22.5 20.875ZM28.125 19C28.125 20.607 27.6485 22.1779 26.7557 23.514C25.8629 24.8502 24.594 25.8916 23.1093 26.5065C21.6247 27.1215 19.991 27.2824 18.4149 26.9689C16.8388 26.6554 15.3911 25.8815 14.2548 24.7452C13.1185 23.6089 12.3446 22.1612 12.0311 20.5851C11.7176 19.009 11.8785 17.3753 12.4935 15.8907C13.1084 14.406 14.1498 13.1371 15.486 12.2443C16.8221 11.3515 18.393 10.875 20 10.875C22.1542 10.8773 24.2195 11.734 25.7427 13.2573C27.266 14.7805 28.1227 16.8458 28.125 19ZM23.75 20.875C23.75 20.212 23.4866 19.5761 23.0178 19.1072C22.5489 18.6384 21.913 18.375 21.25 18.375H20.625V15.875H20.9375C21.269 15.875 21.587 16.0067 21.8214 16.2411C22.0558 16.4755 22.1875 16.7935 22.1875 17.125C22.1875 17.2908 22.2534 17.4497 22.3706 17.5669C22.4878 17.6842 22.6467 17.75 22.8125 17.75C22.9783 17.75 23.1372 17.6842 23.2544 17.5669C23.3717 17.4497 23.4375 17.2908 23.4375 17.125C23.4375 16.462 23.1741 15.8261 22.7053 15.3572C22.2364 14.8884 21.6005 14.625 20.9375 14.625H20.625V14C20.625 13.8342 20.5592 13.6753 20.4419 13.5581C20.3247 13.4408 20.1658 13.375 20 13.375C19.8342 13.375 19.6753 13.4408 19.5581 13.5581C19.4409 13.6753 19.375 13.8342 19.375 14V14.625H19.0625C18.3995 14.625 17.7636 14.8884 17.2947 15.3572C16.8259 15.8261 16.5625 16.462 16.5625 17.125C16.5625 17.788 16.8259 18.4239 17.2947 18.8928C17.7636 19.3616 18.3995 19.625 19.0625 19.625H19.375V22.125H18.75C18.4185 22.125 18.1005 21.9933 17.8661 21.7589C17.6317 21.5245 17.5 21.2065 17.5 20.875C17.5 20.7092 17.4342 20.5503 17.3169 20.4331C17.1997 20.3158 17.0408 20.25 16.875 20.25C16.7092 20.25 16.5503 20.3158 16.4331 20.4331C16.3159 20.5503 16.25 20.7092 16.25 20.875C16.25 21.538 16.5134 22.1739 16.9822 22.6428C17.4511 23.1116 18.087 23.375 18.75 23.375H19.375V24C19.375 24.1658 19.4409 24.3247 19.5581 24.4419C19.6753 24.5592 19.8342 24.625 20 24.625C20.1658 24.625 20.3247 24.5592 20.4419 24.4419C20.5592 24.3247 20.625 24.1658 20.625 24V23.375H21.25C21.913 23.375 22.5489 23.1116 23.0178 22.6428C23.4866 22.1739 23.75 21.538 23.75 20.875ZM17.8125 17.125C17.8125 17.4565 17.9442 17.7745 18.1786 18.0089C18.413 18.2433 18.731 18.375 19.0625 18.375H19.375V15.875H19.0625C18.731 15.875 18.413 16.0067 18.1786 16.2411C17.9442 16.4755 17.8125 16.7935 17.8125 17.125Z" fill="#0101FD"/>
</g>
<defs>
<filter id="filter0_d_246_4131" x="0" y="0" width="40" height="40" filterUnits="userSpaceOnUse" color-interpolation-filters="sRGB">
<feFlood flood-opacity="0" result="BackgroundImageFix"/>
<feColorMatrix in="SourceAlpha" type="matrix" values="0 0 0 0 0 0 0 0 0 0 0 0 0 0 0 0 0 0 127 0" result="hardAlpha"/>
<feOffset dy="1"/>
<feGaussianBlur stdDeviation="1"/>
<feComposite in2="hardAlpha" operator="out"/>
<feColorMatrix type="matrix" values="0 0 0 0 0 0 0 0 0 0 0 0 0 0 0 0 0 0 0.12 0"/>
<feBlend mode="normal" in2="BackgroundImageFix" result="effect1_dropShadow_246_4131"/>
<feBlend mode="normal" in="SourceGraphic" in2="effect1_dropShadow_246_4131" result="shape"/>
</filter>
</defs>
</svg>
