<svg width="32" height="32" viewBox="0 0 32 32" fill="none" xmlns="http://www.w3.org/2000/svg">
<g filter="url(#filter0_d_246_3113)">
<rect x="2" y="1" width="28" height="28" rx="4" fill="white" shape-rendering="crispEdges"/>
<path d="M19 13.2667L13 9.80668M10.18 11.64L16 15.0067L21.82 11.64M16 21.72V15M22 17.6667V12.3333C21.9998 12.0995 21.938 11.8699 21.821 11.6675C21.704 11.465 21.5358 11.2969 21.3333 11.18L16.6667 8.51335C16.464 8.39633 16.234 8.33472 16 8.33472C15.766 8.33472 15.536 8.39633 15.3333 8.51335L10.6667 11.18C10.4642 11.2969 10.296 11.465 10.179 11.6675C10.062 11.8699 10.0002 12.0995 10 12.3333V17.6667C10.0002 17.9005 10.062 18.1301 10.179 18.3326C10.296 18.535 10.4642 18.7031 10.6667 18.82L15.3333 21.4867C15.536 21.6037 15.766 21.6653 16 21.6653C16.234 21.6653 16.464 21.6037 16.6667 21.4867L21.3333 18.82C21.5358 18.7031 21.704 18.535 21.821 18.3326C21.938 18.1301 21.9998 17.9005 22 17.6667Z" stroke="#0101FD" stroke-width="1.6" stroke-linecap="round" stroke-linejoin="round"/>
</g>
<defs>
<filter id="filter0_d_246_3113" x="0" y="0" width="32" height="32" filterUnits="userSpaceOnUse" color-interpolation-filters="sRGB">
<feFlood flood-opacity="0" result="BackgroundImageFix"/>
<feColorMatrix in="SourceAlpha" type="matrix" values="0 0 0 0 0 0 0 0 0 0 0 0 0 0 0 0 0 0 127 0" result="hardAlpha"/>
<feOffset dy="1"/>
<feGaussianBlur stdDeviation="1"/>
<feComposite in2="hardAlpha" operator="out"/>
<feColorMatrix type="matrix" values="0 0 0 0 0 0 0 0 0 0 0 0 0 0 0 0 0 0 0.12 0"/>
<feBlend mode="normal" in2="BackgroundImageFix" result="effect1_dropShadow_246_3113"/>
<feBlend mode="normal" in="SourceGraphic" in2="effect1_dropShadow_246_3113" result="shape"/>
</filter>
</defs>
</svg>
