<svg width="40" height="40" viewBox="0 0 40 40" fill="none" xmlns="http://www.w3.org/2000/svg">
<g filter="url(#filter0_d_246_4110)">
<rect x="2" y="1" width="36" height="36" rx="4" fill="white" shape-rendering="crispEdges"/>
<path d="M26.25 11.5H24.375V10.875C24.375 10.7092 24.3092 10.5503 24.1919 10.4331C24.0747 10.3158 23.9158 10.25 23.75 10.25C23.5842 10.25 23.4253 10.3158 23.3081 10.4331C23.1908 10.5503 23.125 10.7092 23.125 10.875V11.5H16.875V10.875C16.875 10.7092 16.8092 10.5503 16.6919 10.4331C16.5747 10.3158 16.4158 10.25 16.25 10.25C16.0842 10.25 15.9253 10.3158 15.8081 10.4331C15.6908 10.5503 15.625 10.7092 15.625 10.875V11.5H13.75C13.4185 11.5 13.1005 11.6317 12.8661 11.8661C12.6317 12.1005 12.5 12.4185 12.5 12.75V25.25C12.5 25.5815 12.6317 25.8995 12.8661 26.1339C13.1005 26.3683 13.4185 26.5 13.75 26.5H26.25C26.5815 26.5 26.8995 26.3683 27.1339 26.1339C27.3683 25.8995 27.5 25.5815 27.5 25.25V12.75C27.5 12.4185 27.3683 12.1005 27.1339 11.8661C26.8995 11.6317 26.5815 11.5 26.25 11.5ZM23.2547 19.4422L19.5047 23.1922C19.4466 23.2503 19.3777 23.2964 19.3018 23.3279C19.226 23.3593 19.1446 23.3755 19.0625 23.3755C18.9804 23.3755 18.899 23.3593 18.8232 23.3279C18.7473 23.2964 18.6784 23.2503 18.6203 23.1922L16.7453 21.3172C16.628 21.1999 16.5622 21.0409 16.5622 20.875C16.5622 20.7091 16.628 20.5501 16.7453 20.4328C16.8626 20.3155 17.0216 20.2497 17.1875 20.2497C17.3534 20.2497 17.5124 20.3155 17.6297 20.4328L19.0625 21.8664L22.3703 18.5578C22.4284 18.4997 22.4973 18.4537 22.5732 18.4223C22.6491 18.3908 22.7304 18.3747 22.8125 18.3747C22.8946 18.3747 22.9759 18.3908 23.0518 18.4223C23.1277 18.4537 23.1966 18.4997 23.2547 18.5578C23.3128 18.6159 23.3588 18.6848 23.3902 18.7607C23.4217 18.8366 23.4378 18.9179 23.4378 19C23.4378 19.0821 23.4217 19.1634 23.3902 19.2393C23.3588 19.3152 23.3128 19.3841 23.2547 19.4422ZM13.75 15.25V12.75H15.625V13.375C15.625 13.5408 15.6908 13.6997 15.8081 13.8169C15.9253 13.9342 16.0842 14 16.25 14C16.4158 14 16.5747 13.9342 16.6919 13.8169C16.8092 13.6997 16.875 13.5408 16.875 13.375V12.75H23.125V13.375C23.125 13.5408 23.1908 13.6997 23.3081 13.8169C23.4253 13.9342 23.5842 14 23.75 14C23.9158 14 24.0747 13.9342 24.1919 13.8169C24.3092 13.6997 24.375 13.5408 24.375 13.375V12.75H26.25V15.25H13.75Z" fill="#0101FD"/>
</g>
<defs>
<filter id="filter0_d_246_4110" x="0" y="0" width="40" height="40" filterUnits="userSpaceOnUse" color-interpolation-filters="sRGB">
<feFlood flood-opacity="0" result="BackgroundImageFix"/>
<feColorMatrix in="SourceAlpha" type="matrix" values="0 0 0 0 0 0 0 0 0 0 0 0 0 0 0 0 0 0 127 0" result="hardAlpha"/>
<feOffset dy="1"/>
<feGaussianBlur stdDeviation="1"/>
<feComposite in2="hardAlpha" operator="out"/>
<feColorMatrix type="matrix" values="0 0 0 0 0 0 0 0 0 0 0 0 0 0 0 0 0 0 0.12 0"/>
<feBlend mode="normal" in2="BackgroundImageFix" result="effect1_dropShadow_246_4110"/>
<feBlend mode="normal" in="SourceGraphic" in2="effect1_dropShadow_246_4110" result="shape"/>
</filter>
</defs>
</svg>
