<svg width="20" height="20" viewBox="0 0 20 20" fill="none" xmlns="http://www.w3.org/2000/svg">
<path d="M10 1.875C8.39303 1.875 6.82214 2.35152 5.486 3.24431C4.14985 4.1371 3.10844 5.40605 2.49348 6.8907C1.87852 8.37535 1.71762 10.009 2.03112 11.5851C2.34463 13.1612 3.11846 14.6089 4.25476 15.7452C5.39106 16.8815 6.8388 17.6554 8.4149 17.9689C9.99099 18.2824 11.6247 18.1215 13.1093 17.5065C14.594 16.8916 15.8629 15.8502 16.7557 14.514C17.6485 13.1779 18.125 11.607 18.125 10C18.1227 7.84581 17.266 5.78051 15.7427 4.25727C14.2195 2.73403 12.1542 1.87727 10 1.875ZM11.25 14.375H10.625V15C10.625 15.1658 10.5592 15.3247 10.4419 15.4419C10.3247 15.5592 10.1658 15.625 10 15.625C9.83424 15.625 9.67527 15.5592 9.55806 15.4419C9.44085 15.3247 9.375 15.1658 9.375 15V14.375H8.75C8.08696 14.375 7.45108 14.1116 6.98224 13.6428C6.5134 13.1739 6.25 12.538 6.25 11.875C6.25 11.7092 6.31585 11.5503 6.43306 11.4331C6.55027 11.3158 6.70924 11.25 6.875 11.25C7.04076 11.25 7.19974 11.3158 7.31695 11.4331C7.43416 11.5503 7.5 11.7092 7.5 11.875C7.5 12.2065 7.6317 12.5245 7.86612 12.7589C8.10054 12.9933 8.41848 13.125 8.75 13.125H11.25C11.5815 13.125 11.8995 12.9933 12.1339 12.7589C12.3683 12.5245 12.5 12.2065 12.5 11.875C12.5 11.5435 12.3683 11.2255 12.1339 10.9911C11.8995 10.7567 11.5815 10.625 11.25 10.625H9.0625C8.39946 10.625 7.76358 10.3616 7.29474 9.89277C6.8259 9.42393 6.5625 8.78804 6.5625 8.125C6.5625 7.46196 6.8259 6.82607 7.29474 6.35723C7.76358 5.88839 8.39946 5.625 9.0625 5.625H9.375V5C9.375 4.83424 9.44085 4.67527 9.55806 4.55806C9.67527 4.44085 9.83424 4.375 10 4.375C10.1658 4.375 10.3247 4.44085 10.4419 4.55806C10.5592 4.67527 10.625 4.83424 10.625 5V5.625H10.9375C11.6005 5.625 12.2364 5.88839 12.7053 6.35723C13.1741 6.82607 13.4375 7.46196 13.4375 8.125C13.4375 8.29076 13.3717 8.44973 13.2544 8.56694C13.1372 8.68415 12.9783 8.75 12.8125 8.75C12.6467 8.75 12.4878 8.68415 12.3706 8.56694C12.2534 8.44973 12.1875 8.29076 12.1875 8.125C12.1875 7.79348 12.0558 7.47554 11.8214 7.24112C11.587 7.0067 11.269 6.875 10.9375 6.875H9.0625C8.73098 6.875 8.41304 7.0067 8.17862 7.24112C7.9442 7.47554 7.8125 7.79348 7.8125 8.125C7.8125 8.45652 7.9442 8.77446 8.17862 9.00888C8.41304 9.2433 8.73098 9.375 9.0625 9.375H11.25C11.913 9.375 12.5489 9.63839 13.0178 10.1072C13.4866 10.5761 13.75 11.212 13.75 11.875C13.75 12.538 13.4866 13.1739 13.0178 13.6428C12.5489 14.1116 11.913 14.375 11.25 14.375Z" fill="#01017A"/>
</svg>
