<svg width="40" height="40" viewBox="0 0 40 40" fill="none" xmlns="http://www.w3.org/2000/svg">
<g filter="url(#filter0_d_246_3084)">
<rect x="2" y="1" width="36" height="36" rx="18" fill="white" shape-rendering="crispEdges"/>
<path d="M27.5 20.25V25.25C27.5 25.4158 27.4342 25.5747 27.3169 25.6919C27.1997 25.8092 27.0408 25.875 26.875 25.875H13.125C12.9592 25.875 12.8003 25.8092 12.6831 25.6919C12.5658 25.5747 12.5 25.4158 12.5 25.25V20.25C12.5 20.0842 12.5658 19.9253 12.6831 19.8081C12.8003 19.6908 12.9592 19.625 13.125 19.625C13.2908 19.625 13.4497 19.6908 13.5669 19.8081C13.6842 19.9253 13.75 20.0842 13.75 20.25V24.625H26.25V20.25C26.25 20.0842 26.3158 19.9253 26.4331 19.8081C26.5503 19.6908 26.7092 19.625 26.875 19.625C27.0408 19.625 27.1997 19.6908 27.3169 19.8081C27.4342 19.9253 27.5 20.0842 27.5 20.25ZM19.5578 20.6922C19.6159 20.7503 19.6848 20.7964 19.7607 20.8279C19.8365 20.8593 19.9179 20.8755 20 20.8755C20.0821 20.8755 20.1635 20.8593 20.2393 20.8279C20.3152 20.7964 20.3841 20.7503 20.4422 20.6922L23.5672 17.5672C23.6253 17.5091 23.6713 17.4402 23.7027 17.3643C23.7342 17.2884 23.7503 17.2071 23.7503 17.125C23.7503 17.0429 23.7342 16.9616 23.7027 16.8857C23.6713 16.8098 23.6253 16.7409 23.5672 16.6828C23.5091 16.6247 23.4402 16.5787 23.3643 16.5473C23.2884 16.5158 23.2071 16.4997 23.125 16.4997C23.0429 16.4997 22.9616 16.5158 22.8857 16.5473C22.8098 16.5787 22.7409 16.6247 22.6828 16.6828L20.625 18.7414V11.5C20.625 11.3342 20.5592 11.1753 20.4419 11.0581C20.3247 10.9408 20.1658 10.875 20 10.875C19.8342 10.875 19.6753 10.9408 19.5581 11.0581C19.4408 11.1753 19.375 11.3342 19.375 11.5V18.7414L17.3172 16.6828C17.1999 16.5655 17.0409 16.4997 16.875 16.4997C16.7091 16.4997 16.5501 16.5655 16.4328 16.6828C16.3155 16.8001 16.2497 16.9591 16.2497 17.125C16.2497 17.2909 16.3155 17.4499 16.4328 17.5672L19.5578 20.6922Z" fill="#333333"/>
</g>
<defs>
<filter id="filter0_d_246_3084" x="0" y="0" width="40" height="40" filterUnits="userSpaceOnUse" color-interpolation-filters="sRGB">
<feFlood flood-opacity="0" result="BackgroundImageFix"/>
<feColorMatrix in="SourceAlpha" type="matrix" values="0 0 0 0 0 0 0 0 0 0 0 0 0 0 0 0 0 0 127 0" result="hardAlpha"/>
<feOffset dy="1"/>
<feGaussianBlur stdDeviation="1"/>
<feComposite in2="hardAlpha" operator="out"/>
<feColorMatrix type="matrix" values="0 0 0 0 0 0 0 0 0 0 0 0 0 0 0 0 0 0 0.12 0"/>
<feBlend mode="normal" in2="BackgroundImageFix" result="effect1_dropShadow_246_3084"/>
<feBlend mode="normal" in="SourceGraphic" in2="effect1_dropShadow_246_3084" result="shape"/>
</filter>
</defs>
</svg>
