<svg width="32" height="32" viewBox="0 0 32 32" fill="none" xmlns="http://www.w3.org/2000/svg">
<g filter="url(#filter0_d_244_16750)">
<rect x="2" y="1" width="28" height="28" rx="4" fill="white" shape-rendering="crispEdges"/>
<path d="M19.3334 21V19.6667C19.3334 18.9594 19.0524 18.2811 18.5523 17.781C18.0522 17.281 17.3739 17 16.6667 17H11.3334C10.6261 17 9.94783 17.281 9.44774 17.781C8.94764 18.2811 8.66669 18.9594 8.66669 19.6667V21M23.3334 21V19.6667C23.3329 19.0758 23.1363 18.5018 22.7743 18.0349C22.4123 17.5679 21.9054 17.2344 21.3334 17.0867M18.6667 9.08667C19.2403 9.23353 19.7487 9.56713 20.1118 10.0349C20.4748 10.5026 20.6719 11.0779 20.6719 11.67C20.6719 12.2621 20.4748 12.8374 20.1118 13.3051C19.7487 13.7729 19.2403 14.1065 18.6667 14.2533M16.6667 11.6667C16.6667 13.1394 15.4728 14.3333 14 14.3333C12.5273 14.3333 11.3334 13.1394 11.3334 11.6667C11.3334 10.1939 12.5273 9 14 9C15.4728 9 16.6667 10.1939 16.6667 11.6667Z" stroke="#0101FD" stroke-width="1.6" stroke-linecap="round" stroke-linejoin="round"/>
</g>
<defs>
<filter id="filter0_d_244_16750" x="0" y="0" width="32" height="32" filterUnits="userSpaceOnUse" color-interpolation-filters="sRGB">
<feFlood flood-opacity="0" result="BackgroundImageFix"/>
<feColorMatrix in="SourceAlpha" type="matrix" values="0 0 0 0 0 0 0 0 0 0 0 0 0 0 0 0 0 0 127 0" result="hardAlpha"/>
<feOffset dy="1"/>
<feGaussianBlur stdDeviation="1"/>
<feComposite in2="hardAlpha" operator="out"/>
<feColorMatrix type="matrix" values="0 0 0 0 0 0 0 0 0 0 0 0 0 0 0 0 0 0 0.12 0"/>
<feBlend mode="normal" in2="BackgroundImageFix" result="effect1_dropShadow_244_16750"/>
<feBlend mode="normal" in="SourceGraphic" in2="effect1_dropShadow_244_16750" result="shape"/>
</filter>
</defs>
</svg>
