<svg width="40" height="40" viewBox="0 0 40 40" fill="none" xmlns="http://www.w3.org/2000/svg">
<path d="M30 25C27.2386 25 25 27.2386 25 30C25 32.7614 27.2386 35 30 35C32.7614 35 35 32.7614 35 30C35 27.2386 32.7614 25 30 25ZM30 25L30 13.3333C30 12.4493 29.6488 11.6014 29.0237 10.9763C28.3986 10.3512 27.5507 10 26.6667 10H21.6667M10 15C12.7614 15 15 12.7614 15 10C15 7.23858 12.7614 5 10 5C7.23858 5 5 7.23858 5 10C5 12.7614 7.23858 15 10 15ZM10 15L10 35" stroke="#0101FD" stroke-width="3.5" stroke-linecap="round" stroke-linejoin="round"/>
</svg>
