<svg width="40" height="40" viewBox="0 0 40 40" fill="none" xmlns="http://www.w3.org/2000/svg">
<g filter="url(#filter0_d_246_3081)">
<rect x="2" y="1" width="36" height="36" rx="18" fill="white" shape-rendering="crispEdges"/>
<path d="M23.9062 12.125C22.293 12.125 20.8805 12.8188 20 13.9914C19.1195 12.8188 17.707 12.125 16.0938 12.125C14.8096 12.1264 13.5784 12.6372 12.6703 13.5453C11.7622 14.4534 11.2514 15.6846 11.25 16.9688C11.25 22.4375 19.3586 26.8641 19.7039 27.0469C19.7949 27.0958 19.8967 27.1215 20 27.1215C20.1033 27.1215 20.2051 27.0958 20.2961 27.0469C20.6414 26.8641 28.75 22.4375 28.75 16.9688C28.7486 15.6846 28.2378 14.4534 27.3297 13.5453C26.4216 12.6372 25.1904 12.1264 23.9062 12.125ZM20 25.7813C18.5734 24.95 12.5 21.1633 12.5 16.9688C12.5012 16.016 12.8803 15.1026 13.554 14.429C14.2276 13.7553 15.141 13.3762 16.0938 13.375C17.6133 13.375 18.8891 14.1844 19.4219 15.4844C19.469 15.599 19.5491 15.6971 19.652 15.7661C19.7549 15.8351 19.8761 15.8719 20 15.8719C20.1239 15.8719 20.2451 15.8351 20.348 15.7661C20.4509 15.6971 20.531 15.599 20.5781 15.4844C21.1109 14.182 22.3867 13.375 23.9062 13.375C24.859 13.3762 25.7724 13.7553 26.446 14.429C27.1197 15.1026 27.4988 16.016 27.5 16.9688C27.5 21.157 21.425 24.9492 20 25.7813Z" fill="#333333"/>
</g>
<defs>
<filter id="filter0_d_246_3081" x="0" y="0" width="40" height="40" filterUnits="userSpaceOnUse" color-interpolation-filters="sRGB">
<feFlood flood-opacity="0" result="BackgroundImageFix"/>
<feColorMatrix in="SourceAlpha" type="matrix" values="0 0 0 0 0 0 0 0 0 0 0 0 0 0 0 0 0 0 127 0" result="hardAlpha"/>
<feOffset dy="1"/>
<feGaussianBlur stdDeviation="1"/>
<feComposite in2="hardAlpha" operator="out"/>
<feColorMatrix type="matrix" values="0 0 0 0 0 0 0 0 0 0 0 0 0 0 0 0 0 0 0.12 0"/>
<feBlend mode="normal" in2="BackgroundImageFix" result="effect1_dropShadow_246_3081"/>
<feBlend mode="normal" in="SourceGraphic" in2="effect1_dropShadow_246_3081" result="shape"/>
</filter>
</defs>
</svg>
