<svg width="40" height="40" viewBox="0 0 40 40" fill="none" xmlns="http://www.w3.org/2000/svg">
<g filter="url(#filter0_d_246_4145)">
<rect x="2" y="1" width="36" height="36" rx="4" fill="white" shape-rendering="crispEdges"/>
<path d="M16.836 20.8373L21.836 15.8373C21.9232 15.7501 22.0267 15.681 22.1407 15.6338C22.2546 15.5866 22.3767 15.5623 22.5001 15.5623C22.6234 15.5623 22.7455 15.5866 22.8594 15.6338C22.9734 15.681 23.0769 15.7501 23.1641 15.8373C23.2513 15.9245 23.3205 16.0281 23.3677 16.142C23.4149 16.2559 23.4392 16.3781 23.4392 16.5014C23.4392 16.6247 23.4149 16.7468 23.3677 16.8608C23.3205 16.9747 23.2513 17.0783 23.1641 17.1655L18.1641 22.1655C17.988 22.3416 17.7491 22.4405 17.5001 22.4405C17.251 22.4405 17.0121 22.3416 16.836 22.1655C16.6599 21.9893 16.5609 21.7505 16.5609 21.5014C16.5609 21.2523 16.6599 21.0135 16.836 20.8373ZM27.0704 11.9311C26.1904 11.0531 24.9982 10.5601 23.7551 10.5601C22.5121 10.5601 21.3198 11.0531 20.4399 11.9311L18.0868 14.2819C17.9107 14.458 17.8117 14.6969 17.8117 14.9459C17.8117 15.0693 17.836 15.1914 17.8832 15.3053C17.9304 15.4193 17.9996 15.5228 18.0868 15.61C18.174 15.6972 18.2775 15.7664 18.3914 15.8136C18.5054 15.8608 18.6275 15.8851 18.7508 15.8851C18.9999 15.8851 19.2388 15.7861 19.4149 15.61L21.7641 13.2616C22.2916 12.7339 23.0072 12.4375 23.7533 12.4374C24.4994 12.4373 25.215 12.7336 25.7426 13.2612C26.2703 13.7887 26.5667 14.5042 26.5668 15.2503C26.5669 15.9965 26.2706 16.712 25.743 17.2397L23.3907 19.5873C23.3035 19.6745 23.2343 19.7781 23.1871 19.892C23.1399 20.0059 23.1156 20.1281 23.1156 20.2514C23.1156 20.3747 23.1399 20.4968 23.1871 20.6108C23.2343 20.7247 23.3035 20.8282 23.3907 20.9155C23.4779 21.0027 23.5814 21.0718 23.6954 21.119C23.8093 21.1662 23.9314 21.1905 24.0547 21.1905C24.1781 21.1905 24.3002 21.1662 24.4141 21.119C24.5281 21.0718 24.6316 21.0027 24.7188 20.9155L27.0688 18.567C27.9472 17.6865 28.4403 16.4935 28.4399 15.2497C28.4395 14.006 27.9455 12.8133 27.0665 11.9334L27.0704 11.9311ZM20.5876 22.3905L18.2383 24.7405C17.9771 25.0017 17.6669 25.2089 17.3256 25.3502C16.9843 25.4915 16.6184 25.5643 16.249 25.5642C15.8796 25.5642 15.5137 25.4914 15.1724 25.35C14.8311 25.2086 14.521 25.0013 14.2598 24.7401C13.7323 24.2124 13.436 23.4968 13.436 22.7507C13.4361 22.0046 13.7326 21.2891 14.2602 20.7615L16.6086 18.4123C16.6959 18.3251 16.765 18.2216 16.8122 18.1077C16.8594 17.9937 16.8837 17.8716 16.8837 17.7483C16.8837 17.6249 16.8594 17.5028 16.8122 17.3889C16.765 17.2749 16.6959 17.1714 16.6086 17.0842C16.5214 16.997 16.4179 16.9278 16.304 16.8806C16.19 16.8334 16.0679 16.8091 15.9446 16.8091C15.8213 16.8091 15.6991 16.8334 15.5852 16.8806C15.4713 16.9278 15.3677 16.997 15.2805 17.0842L12.9336 19.4358C12.4983 19.8712 12.1529 20.3881 11.9173 20.957C11.6818 21.5258 11.5605 22.1355 11.5605 22.7513C11.5606 23.9948 12.0547 25.1874 12.934 26.0666C13.8134 26.9459 15.006 27.4398 16.2495 27.4397C17.4931 27.4397 18.6856 26.9456 19.5649 26.0662L21.9133 23.717C22.0895 23.5409 22.1884 23.302 22.1884 23.053C22.1884 22.8039 22.0895 22.565 21.9133 22.3889C21.7372 22.2128 21.4983 22.1138 21.2493 22.1138C21.0002 22.1138 20.7613 22.2128 20.5852 22.3889L20.5876 22.3905Z" fill="#0101FD"/>
</g>
<defs>
<filter id="filter0_d_246_4145" x="0" y="0" width="40" height="40" filterUnits="userSpaceOnUse" color-interpolation-filters="sRGB">
<feFlood flood-opacity="0" result="BackgroundImageFix"/>
<feColorMatrix in="SourceAlpha" type="matrix" values="0 0 0 0 0 0 0 0 0 0 0 0 0 0 0 0 0 0 127 0" result="hardAlpha"/>
<feOffset dy="1"/>
<feGaussianBlur stdDeviation="1"/>
<feComposite in2="hardAlpha" operator="out"/>
<feColorMatrix type="matrix" values="0 0 0 0 0 0 0 0 0 0 0 0 0 0 0 0 0 0 0.12 0"/>
<feBlend mode="normal" in2="BackgroundImageFix" result="effect1_dropShadow_246_4145"/>
<feBlend mode="normal" in="SourceGraphic" in2="effect1_dropShadow_246_4145" result="shape"/>
</filter>
</defs>
</svg>
