<svg width="32" height="32" viewBox="0 0 32 32" fill="none" xmlns="http://www.w3.org/2000/svg">
<g filter="url(#filter0_d_244_16767)">
<rect x="2" y="1" width="28" height="28" rx="4" fill="white" shape-rendering="crispEdges"/>
<path d="M22 13.6665C22 18.3332 16 22.3332 16 22.3332C16 22.3332 10 18.3332 10 13.6665C10 12.0752 10.6321 10.5491 11.7574 9.42386C12.8826 8.29864 14.4087 7.6665 16 7.6665C17.5913 7.6665 19.1174 8.29864 20.2426 9.42386C21.3679 10.5491 22 12.0752 22 13.6665Z" stroke="#0101FD" stroke-width="1.6" stroke-linecap="round" stroke-linejoin="round"/>
<path d="M16 15.6665C17.1046 15.6665 18 14.7711 18 13.6665C18 12.5619 17.1046 11.6665 16 11.6665C14.8954 11.6665 14 12.5619 14 13.6665C14 14.7711 14.8954 15.6665 16 15.6665Z" stroke="#0101FD" stroke-width="1.6" stroke-linecap="round" stroke-linejoin="round"/>
</g>
<defs>
<filter id="filter0_d_244_16767" x="0" y="0" width="32" height="32" filterUnits="userSpaceOnUse" color-interpolation-filters="sRGB">
<feFlood flood-opacity="0" result="BackgroundImageFix"/>
<feColorMatrix in="SourceAlpha" type="matrix" values="0 0 0 0 0 0 0 0 0 0 0 0 0 0 0 0 0 0 127 0" result="hardAlpha"/>
<feOffset dy="1"/>
<feGaussianBlur stdDeviation="1"/>
<feComposite in2="hardAlpha" operator="out"/>
<feColorMatrix type="matrix" values="0 0 0 0 0 0 0 0 0 0 0 0 0 0 0 0 0 0 0.12 0"/>
<feBlend mode="normal" in2="BackgroundImageFix" result="effect1_dropShadow_244_16767"/>
<feBlend mode="normal" in="SourceGraphic" in2="effect1_dropShadow_244_16767" result="shape"/>
</filter>
</defs>
</svg>
