<svg width="40" height="40" viewBox="0 0 40 40" fill="none" xmlns="http://www.w3.org/2000/svg">
<g filter="url(#filter0_d_246_4124)">
<rect x="2" y="1" width="36" height="36" rx="4" fill="white" shape-rendering="crispEdges"/>
<path d="M28.75 25.25H28.125V15.875C28.125 15.7092 28.0592 15.5503 27.9419 15.4331C27.8247 15.3158 27.6658 15.25 27.5 15.25H22.5C22.3342 15.25 22.1753 15.3158 22.0581 15.4331C21.9408 15.5503 21.875 15.7092 21.875 15.875V19H18.125V12.125C18.125 11.9592 18.0592 11.8003 17.9419 11.6831C17.8247 11.5658 17.6658 11.5 17.5 11.5H12.5C12.3342 11.5 12.1753 11.5658 12.0581 11.6831C11.9408 11.8003 11.875 11.9592 11.875 12.125V25.25H11.25C11.0842 25.25 10.9253 25.3158 10.8081 25.4331C10.6908 25.5503 10.625 25.7092 10.625 25.875C10.625 26.0408 10.6908 26.1997 10.8081 26.3169C10.9253 26.4342 11.0842 26.5 11.25 26.5H28.75C28.9158 26.5 29.0747 26.4342 29.1919 26.3169C29.3092 26.1997 29.375 26.0408 29.375 25.875C29.375 25.7092 29.3092 25.5503 29.1919 25.4331C29.0747 25.3158 28.9158 25.25 28.75 25.25ZM15.625 23.375C15.625 23.5408 15.5592 23.6997 15.4419 23.8169C15.3247 23.9342 15.1658 24 15 24C14.8342 24 14.6753 23.9342 14.5581 23.8169C14.4408 23.6997 14.375 23.5408 14.375 23.375V22.125C14.375 21.9592 14.4408 21.8003 14.5581 21.6831C14.6753 21.5658 14.8342 21.5 15 21.5C15.1658 21.5 15.3247 21.5658 15.4419 21.6831C15.5592 21.8003 15.625 21.9592 15.625 22.125V23.375ZM15.625 19.625C15.625 19.7908 15.5592 19.9497 15.4419 20.0669C15.3247 20.1842 15.1658 20.25 15 20.25C14.8342 20.25 14.6753 20.1842 14.5581 20.0669C14.4408 19.9497 14.375 19.7908 14.375 19.625V18.375C14.375 18.2092 14.4408 18.0503 14.5581 17.9331C14.6753 17.8158 14.8342 17.75 15 17.75C15.1658 17.75 15.3247 17.8158 15.4419 17.9331C15.5592 18.0503 15.625 18.2092 15.625 18.375V19.625ZM15.625 15.875C15.625 16.0408 15.5592 16.1997 15.4419 16.3169C15.3247 16.4342 15.1658 16.5 15 16.5C14.8342 16.5 14.6753 16.4342 14.5581 16.3169C14.4408 16.1997 14.375 16.0408 14.375 15.875V14.625C14.375 14.4592 14.4408 14.3003 14.5581 14.1831C14.6753 14.0658 14.8342 14 15 14C15.1658 14 15.3247 14.0658 15.4419 14.1831C15.5592 14.3003 15.625 14.4592 15.625 14.625V15.875ZM20.625 23.375C20.625 23.5408 20.5592 23.6997 20.4419 23.8169C20.3247 23.9342 20.1658 24 20 24C19.8342 24 19.6753 23.9342 19.5581 23.8169C19.4408 23.6997 19.375 23.5408 19.375 23.375V22.125C19.375 21.9592 19.4408 21.8003 19.5581 21.6831C19.6753 21.5658 19.8342 21.5 20 21.5C20.1658 21.5 20.3247 21.5658 20.4419 21.6831C20.5592 21.8003 20.625 21.9592 20.625 22.125V23.375ZM25.625 23.375C25.625 23.5408 25.5592 23.6997 25.4419 23.8169C25.3247 23.9342 25.1658 24 25 24C24.8342 24 24.6753 23.9342 24.5581 23.8169C24.4408 23.6997 24.375 23.5408 24.375 23.375V22.125C24.375 21.9592 24.4408 21.8003 24.5581 21.6831C24.6753 21.5658 24.8342 21.5 25 21.5C25.1658 21.5 25.3247 21.5658 25.4419 21.6831C25.5592 21.8003 25.625 21.9592 25.625 22.125V23.375ZM25.625 19.625C25.625 19.7908 25.5592 19.9497 25.4419 20.0669C25.3247 20.1842 25.1658 20.25 25 20.25C24.8342 20.25 24.6753 20.1842 24.5581 20.0669C24.4408 19.9497 24.375 19.7908 24.375 19.625V18.375C24.375 18.2092 24.4408 18.0503 24.5581 17.9331C24.6753 17.8158 24.8342 17.75 25 17.75C25.1658 17.75 25.3247 17.8158 25.4419 17.9331C25.5592 18.0503 25.625 18.2092 25.625 18.375V19.625Z" fill="#0101FD"/>
</g>
<defs>
<filter id="filter0_d_246_4124" x="0" y="0" width="40" height="40" filterUnits="userSpaceOnUse" color-interpolation-filters="sRGB">
<feFlood flood-opacity="0" result="BackgroundImageFix"/>
<feColorMatrix in="SourceAlpha" type="matrix" values="0 0 0 0 0 0 0 0 0 0 0 0 0 0 0 0 0 0 127 0" result="hardAlpha"/>
<feOffset dy="1"/>
<feGaussianBlur stdDeviation="1"/>
<feComposite in2="hardAlpha" operator="out"/>
<feColorMatrix type="matrix" values="0 0 0 0 0 0 0 0 0 0 0 0 0 0 0 0 0 0 0.12 0"/>
<feBlend mode="normal" in2="BackgroundImageFix" result="effect1_dropShadow_246_4124"/>
<feBlend mode="normal" in="SourceGraphic" in2="effect1_dropShadow_246_4124" result="shape"/>
</filter>
</defs>
</svg>
