<svg width="16" height="16" viewBox="0 0 16 16" fill="none" xmlns="http://www.w3.org/2000/svg">
<path d="M14.6431 7.17815L11.8306 9.60502L12.6875 13.2344C12.7348 13.4314 12.7226 13.638 12.6525 13.8281C12.5824 14.0182 12.4576 14.1833 12.2937 14.3025C12.1298 14.4217 11.9343 14.4896 11.7319 14.4977C11.5294 14.5059 11.3291 14.4538 11.1562 14.3481L7.99999 12.4056L4.84187 14.3481C4.66901 14.4532 4.46893 14.5048 4.26683 14.4963C4.06473 14.4879 3.86963 14.4199 3.70612 14.3008C3.5426 14.1817 3.41798 14.0169 3.34793 13.8272C3.27789 13.6374 3.26556 13.4312 3.31249 13.2344L4.17249 9.60502L1.35999 7.17815C1.20705 7.04596 1.09644 6.87166 1.04198 6.67699C0.987517 6.48232 0.99161 6.27592 1.05375 6.08356C1.11589 5.89121 1.23332 5.72142 1.39138 5.59541C1.54944 5.4694 1.74113 5.39274 1.94249 5.37502L5.62999 5.07752L7.05249 1.63502C7.12949 1.44741 7.26054 1.28693 7.42897 1.17398C7.59741 1.06104 7.79563 1.00073 7.99843 1.00073C8.20123 1.00073 8.39945 1.06104 8.56788 1.17398C8.73632 1.28693 8.86737 1.44741 8.94437 1.63502L10.3662 5.07752L14.0537 5.37502C14.2555 5.39208 14.4477 5.46831 14.6064 5.59415C14.765 5.71999 14.883 5.88984 14.9455 6.08243C15.008 6.27502 15.0123 6.48178 14.9579 6.6768C14.9034 6.87182 14.7926 7.04644 14.6394 7.17877L14.6431 7.17815Z" fill="#F5A623"/>
</svg>
