<svg width="24" height="24" viewBox="0 0 24 24" fill="none" xmlns="http://www.w3.org/2000/svg">
<rect x="0.5" y="0.5" width="23" height="23" rx="11.5" stroke="#1D8C1D"/>
<path d="M18.1163 10.4262C17.8806 10.18 17.6369 9.92625 17.545 9.70312C17.46 9.49875 17.455 9.16 17.45 8.83187C17.4406 8.22187 17.4306 7.53062 16.95 7.05C16.4694 6.56937 15.7781 6.55937 15.1681 6.55C14.84 6.545 14.5013 6.54 14.2969 6.455C14.0744 6.36312 13.82 6.11937 13.5737 5.88375C13.1425 5.46937 12.6525 5 12 5C11.3475 5 10.8581 5.46937 10.4262 5.88375C10.18 6.11937 9.92625 6.36312 9.70312 6.455C9.5 6.54 9.16 6.545 8.83187 6.55C8.22187 6.55937 7.53062 6.56937 7.05 7.05C6.56937 7.53062 6.5625 8.22187 6.55 8.83187C6.545 9.16 6.54 9.49875 6.455 9.70312C6.36312 9.92562 6.11937 10.18 5.88375 10.4262C5.46937 10.8575 5 11.3475 5 12C5 12.6525 5.46937 13.1419 5.88375 13.5737C6.11937 13.82 6.36312 14.0737 6.455 14.2969C6.54 14.5013 6.545 14.84 6.55 15.1681C6.55937 15.7781 6.56937 16.4694 7.05 16.95C7.53062 17.4306 8.22187 17.4406 8.83187 17.45C9.16 17.455 9.49875 17.46 9.70312 17.545C9.92562 17.6369 10.18 17.8806 10.4262 18.1163C10.8575 18.5306 11.3475 19 12 19C12.6525 19 13.1419 18.5306 13.5737 18.1163C13.82 17.8806 14.0737 17.6369 14.2969 17.545C14.5013 17.46 14.84 17.455 15.1681 17.45C15.7781 17.4406 16.4694 17.4306 16.95 16.95C17.4306 16.4694 17.4406 15.7781 17.45 15.1681C17.455 14.84 17.46 14.5013 17.545 14.2969C17.6369 14.0744 17.8806 13.82 18.1163 13.5737C18.5306 13.1425 19 12.6525 19 12C19 11.3475 18.5306 10.8581 18.1163 10.4262ZM14.8538 10.8538L11.3538 14.3538C11.3073 14.4002 11.2522 14.4371 11.1915 14.4623C11.1308 14.4874 11.0657 14.5004 11 14.5004C10.9343 14.5004 10.8692 14.4874 10.8085 14.4623C10.7478 14.4371 10.6927 14.4002 10.6462 14.3538L9.14625 12.8538C9.05243 12.7599 8.99972 12.6327 8.99972 12.5C8.99972 12.3673 9.05243 12.2401 9.14625 12.1462C9.24007 12.0524 9.36732 11.9997 9.5 11.9997C9.63268 11.9997 9.75993 12.0524 9.85375 12.1462L11 13.2931L14.1462 10.1462C14.1927 10.0998 14.2479 10.0629 14.3086 10.0378C14.3692 10.0127 14.4343 9.99972 14.5 9.99972C14.5657 9.99972 14.6308 10.0127 14.6914 10.0378C14.7521 10.0629 14.8073 10.0998 14.8538 10.1462C14.9002 10.1927 14.9371 10.2479 14.9622 10.3086C14.9873 10.3692 15.0003 10.4343 15.0003 10.5C15.0003 10.5657 14.9873 10.6308 14.9622 10.6914C14.9371 10.7521 14.9002 10.8073 14.8538 10.8538Z" fill="#1D8C1D"/>
</svg>
